<svg height="300px" viewBox="0 0 1300 530" version="1.1" xmlns="http://www.w3.org/2000/svg" xmlns:xlink="http://www.w3.org/1999/xlink" xml:space="preserve" xmlns:serif="http://www.serif.com/" style="fill-rule:evenodd;clip-rule:evenodd;stroke-linejoin:round;stroke-miterlimit:2;">
    <g transform="matrix(1.47936,0,0,1.53571,-592.6,-766.472)">
        <path d="M637.824,652.724C615.32,637.797 596.265,638.931 582.744,646.884C569.811,654.491 561.728,668.74 560.3,682.712C559.316,692.331 561.476,701.772 567.026,708.95C575.022,719.288 583.493,723.848 591.567,724.704C599.829,725.58 607.953,722.59 615.29,716.892C620.944,712.5 626.144,706.449 630.579,699.629C630.173,704.425 630.386,709.589 631.648,714.054C633.157,719.394 636.135,723.776 640.728,726.228C643.822,727.88 647.71,728.72 652.593,728.147C655.556,727.799 657.668,725.199 657.307,722.345C656.946,719.491 654.247,717.457 651.284,717.805C649.109,718.06 647.35,717.852 645.972,717.116C643.857,715.987 642.778,713.776 642.083,711.317C640.487,705.667 641.206,698.568 642.5,693.663C656.636,640.062 693.456,553.082 698.866,538.934C699.661,536.854 699.862,535.566 699.868,535.3C699.932,532.505 698.242,531.293 697.322,530.739C696.586,530.296 692.557,528.319 689.81,532.44C675.909,553.29 649.487,618.813 637.824,652.724ZM634.388,663.171C620.06,652.881 607.523,650.086 597.308,652.288C585.698,654.79 577.452,663.68 573.5,673.773C569.597,683.74 569.753,695.035 575.7,702.725C581.363,710.048 587.032,713.742 592.75,714.348C598.279,714.935 603.592,712.595 608.502,708.781C619.939,699.897 629.033,683.137 632.882,668.388C633.265,666.923 633.771,665.172 634.388,663.171Z"/>
    </g>
    <g transform="matrix(0.595841,0,0,0.690047,-501.277,-554.292)">
        <path d="M1615.06,1260.6L1615.02,1260.91C1613.12,1278.96 1620.77,1290.65 1631.51,1297.46C1643.73,1305.21 1661.19,1306.63 1676.84,1302.03C1692.31,1297.48 1705.63,1287.25 1710.31,1273.22C1712.36,1267.07 1708.24,1260.64 1701.12,1258.87C1694,1257.1 1686.55,1260.65 1684.5,1266.8C1681.94,1274.5 1673.41,1279.28 1664.72,1280.91C1656.96,1282.36 1648.42,1281.55 1644.26,1275.85C1641.98,1272.73 1641.19,1268.45 1641.77,1263.01C1644.67,1235.45 1666.84,1209.03 1681.83,1186.89C1693.17,1170.15 1700.01,1159.04 1702.16,1154.15C1703.86,1150.31 1703.81,1147.54 1703.6,1146.16C1702.99,1142.16 1700.67,1139.72 1698.22,1138.12C1695.98,1136.66 1693.27,1135.72 1689.91,1135.72C1685.93,1135.72 1682.35,1136.94 1679.3,1139.43C1679.09,1139.6 1678.88,1139.79 1678.68,1139.99C1670.76,1127.9 1657.72,1120.69 1642.81,1117.33C1622.31,1112.71 1598.26,1115.72 1582.43,1121.71C1532.67,1140.56 1484.8,1203.08 1499.81,1259.49C1503.4,1272.97 1510.74,1281.09 1519.48,1285.75C1528.34,1290.47 1539.13,1291.77 1550.79,1290.15C1573.01,1287.05 1599.03,1272.46 1615.06,1260.6ZM1655.12,1151.13C1649.64,1143.05 1639.4,1139.69 1628.87,1138.61C1616.15,1137.31 1602.64,1139.38 1593.22,1142.95C1552.94,1158.2 1513.83,1208.64 1525.98,1254.3C1527.4,1259.64 1529.49,1263.4 1532.79,1265.55C1536.29,1267.83 1540.81,1267.94 1545.61,1267.37C1552.79,1266.53 1560.49,1263.88 1567.97,1260.54C1583.4,1253.64 1597.81,1243.62 1604.91,1237.05C1624.26,1219.13 1638.74,1197.91 1653.12,1176.41C1653.06,1175.83 1653.06,1175.24 1653.1,1174.64C1653.39,1170.9 1654.94,1153.23 1655.12,1151.13Z"/>
    </g>
    <g transform="matrix(1.66188,0,0,2.14122,-2510.07,-2365.36)">
        <path d="M1627.01,1238.57C1624.08,1247.49 1622.67,1255.69 1623.61,1262.37C1629.15,1301.82 1659.1,1322.68 1698.61,1331.72C1737.03,1340.51 1784.75,1337.89 1827.29,1330.27C1866.96,1323.15 1902.1,1311.7 1921,1301.38C1930.21,1296.35 1935.68,1291.32 1937.05,1287.22C1937.72,1285.22 1936.17,1283.18 1933.6,1282.66C1931.03,1282.15 1928.4,1283.35 1927.73,1285.35C1926.73,1288.34 1922.17,1291.6 1915.46,1295.27C1897.25,1305.22 1863.34,1316.13 1825.12,1322.99C1784.2,1330.32 1738.3,1333.01 1701.33,1324.55C1665.44,1316.34 1638.21,1297.4 1633.18,1261.56C1631.49,1249.53 1638.39,1232.25 1647.56,1215.01C1649.49,1211.38 1651.53,1207.75 1653.62,1204.17C1664.03,1189.18 1673.36,1174.32 1679.66,1164.3C1682.88,1159.72 1685.4,1156.19 1686.79,1154.09C1688,1152.26 1688.46,1151.02 1688.51,1150.63C1688.67,1149.37 1688.09,1148.54 1687.62,1148.03C1686.7,1147.03 1685.42,1146.45 1683.66,1146.45C1682.91,1146.45 1681.92,1146.56 1680.85,1147.14C1680.45,1147.35 1679.22,1148.36 1677.85,1150.35L1677.7,1150.58C1678.36,1145.61 1678.4,1141.21 1677.91,1137.34C1676.57,1126.61 1671.24,1119.63 1663.78,1115.39C1655,1110.4 1642.95,1109.19 1629.99,1110.76C1611.87,1112.94 1591.88,1120.48 1577.7,1128.91C1553.49,1143.32 1516.14,1169.03 1515.6,1223.22C1515.36,1246.43 1535.9,1257.58 1559.38,1260.29C1582.32,1262.94 1607.85,1257.14 1618.42,1247.36C1621.22,1244.76 1624.1,1241.8 1627.01,1238.57ZM1660.69,1176C1660.71,1175.72 1660.78,1175.44 1660.89,1175.17C1667.32,1159.23 1669.46,1147.11 1668.33,1138.07C1667.32,1130 1663.69,1124.6 1658.09,1121.42C1651.19,1117.5 1641.65,1116.91 1631.47,1118.14C1614.85,1120.15 1596.56,1127.11 1583.56,1134.85C1560.85,1148.35 1525.74,1172.44 1525.22,1223.28C1525.03,1241.97 1541.89,1250.72 1560.8,1252.9C1580.24,1255.15 1602.08,1250.85 1611.04,1242.56C1621.84,1232.55 1633.76,1217.08 1644.58,1201.55C1649.87,1192.47 1655.51,1183.7 1660.69,1176Z"/>
    </g>
    <g transform="matrix(0.657892,0,0,0.672443,32.3506,62.924)">
        <path d="M799.338,299.793C782.464,321.648 768.297,343.21 762.315,353.961C746.694,382.037 740.667,400.452 739.769,403.932C737.268,413.615 745.316,417.706 745.92,418.008C749.053,419.575 755.773,421.219 762.033,414.534C768.661,407.455 788.811,365.327 791.095,361.589C794.88,355.396 808.486,334.96 820.056,312.316C831.878,297.129 844.997,281.982 857.337,270.875C863.07,265.715 868.574,261.465 873.677,258.724C874.394,258.339 875.085,257.969 875.755,257.635C875.601,259.39 875.369,261.308 875.02,262.999C869.6,289.321 849.876,332.249 847.789,337.64L846.496,341.226C834.179,364.914 825.563,388.176 823.18,405.874C822.878,408.117 823.246,409.621 823.453,410.412C824.83,415.692 828.366,417.734 831.249,418.714C834.155,419.701 838.234,420.223 842.645,416.914C842.913,416.713 845.395,414.919 847.165,410.424C850.311,402.435 865.225,360.771 869.446,349.081C880.447,328.463 894.516,307.582 909.5,290.514C919.507,279.116 929.916,269.43 940.177,262.869C948.616,257.472 956.724,254.101 964.296,254.821C965.952,254.979 967.962,255.545 968.996,255.865C968.814,257.047 968.386,259.464 967.724,261.192C965.928,265.876 962.93,271.166 959.282,276.899C946.832,296.468 927.238,320.326 914.421,341.899C904.237,359.039 898.587,375.255 900.526,387.67C903.928,409.46 919.639,420.212 940.819,420.372C965.912,420.562 1000.69,403.347 1024.33,370.254C1028.17,364.872 1026.82,357.449 1021.32,353.688C1015.82,349.927 1008.23,351.243 1004.39,356.625C986.198,382.095 960.32,396.725 941.007,396.579C932.583,396.515 925.92,392.743 924.567,384.077C923.899,379.802 925.3,374.884 927.479,369.466C930.316,362.415 934.668,354.816 939.709,346.983C956.489,320.905 980.374,292.594 989.143,272.813C995.085,259.408 994.374,248.411 988.649,241.223C984.748,236.323 977.975,232.217 966.651,231.139C948.975,229.457 928.317,239.269 908.546,257.134C905.394,259.982 902.254,263.031 899.139,266.254C901.18,255.38 900.476,246.607 897.977,241.796C895.323,236.686 891.161,233.655 885.554,232.721C879.885,231.776 873.353,232.69 866.32,235.75C858.605,239.107 849.869,245.265 840.871,253.364C840.161,254.003 839.449,254.654 838.741,255.316C838.995,245.162 836.275,236.72 830.766,230.615C825.129,224.368 816.263,219.979 802.591,219.979C778.521,219.979 758.365,227.184 739.75,242.945C734.675,247.242 734.121,254.762 738.512,259.727C742.904,264.692 750.59,265.234 755.665,260.937C769.567,249.167 784.615,243.773 802.591,243.773C807.444,243.773 810.892,244.252 812.727,246.592C814.065,248.296 814.36,250.617 814.435,253.21C814.56,257.571 813.679,262.527 812.238,267.821C809.48,277.948 804.717,289.069 799.338,299.793Z"/>
    </g>
    <g transform="matrix(1,0,0,1,-338.451,-67.5017)">
        <path d="M1189.48,119.947C1179.19,164.244 1170.08,245.023 1151.57,286.121C1134.41,324.232 1103.69,353.228 1081.84,388.189C1079.5,391.933 1080.64,396.873 1084.38,399.213C1088.13,401.553 1093.07,400.413 1095.41,396.669C1117.64,361.099 1148.71,331.465 1166.16,292.689C1185,250.845 1194.59,168.667 1205.06,123.565C1206.06,119.264 1203.38,114.962 1199.08,113.963C1194.78,112.965 1190.47,115.646 1189.48,119.947Z"/>
    </g>
    <g transform="matrix(1,0,0,1,-311.789,-92.0016)">
        <path d="M1132.57,316.27C1134.36,316.258 1136.23,316.194 1138.18,316.074C1162.69,314.56 1185.62,301.748 1206.81,289.82C1293.65,240.941 1308.98,211.848 1365.79,132.988C1368.37,129.406 1367.56,124.402 1363.97,121.821C1360.39,119.24 1355.39,120.053 1352.81,123.636C1297.74,200.067 1283.12,228.503 1198.96,275.877C1179.83,286.647 1159.32,298.738 1137.19,300.104C1120.34,301.145 1113.4,298.079 1109.96,296.586C1108.07,295.766 1106.6,295.329 1105.44,295.187C1101.73,294.732 1098.78,295.533 1095.99,299.636C1094.55,301.764 1094.33,303.797 1094.6,305.631C1094.88,307.587 1095.8,309.892 1098.6,311.678C1099.34,312.146 1100.6,312.721 1102.35,313.345C1105.62,314.51 1112.26,316.816 1118.92,324.834C1125.08,332.234 1131.08,344.091 1135.12,363.179C1148.62,426.909 1154.94,490.268 1210.12,533.59C1267.47,578.614 1350.66,590.138 1426.54,573.37C1502.67,556.549 1571.17,511.309 1599.17,444.126C1600.87,440.051 1598.94,435.363 1594.87,433.664C1590.79,431.965 1586.1,433.894 1584.4,437.97C1558.31,500.564 1494.02,542.075 1423.09,557.747C1351.92,573.474 1273.79,563.234 1220,521.005C1168.02,480.196 1163.49,419.896 1150.77,359.864C1146.28,338.638 1139.42,325.099 1132.57,316.27Z"/>
    </g>
    <g transform="matrix(1.22831,0,0,1.33068,-588.318,-233.521)">
        <path d="M1273.62,354.56C1274.13,351.826 1272.52,349.038 1269.62,347.966C1250.09,340.745 1235.17,342.809 1224.61,349.306C1208.94,358.944 1202.47,379.303 1205.34,397.599C1207.43,410.913 1214.42,422.907 1225.4,429.032C1237.66,435.878 1250.53,434.944 1262.05,429.394C1277.86,421.781 1290.99,405.025 1295.35,389.718C1298.66,378.081 1296.82,367.327 1289.3,360.819C1285.64,357.658 1280.52,355.337 1273.62,354.56ZM1259.92,357.526C1247.99,354.066 1238.66,355.112 1231.83,359.313C1220.06,366.552 1216.08,382.131 1218.23,395.873C1219.74,405.444 1224.25,414.34 1232.14,418.743C1242.33,424.428 1253.08,421.484 1262,415.2C1271.95,408.186 1279.81,397.006 1282.75,386.662C1284.69,379.859 1284.79,373.398 1280.39,369.594C1277.44,367.043 1272.71,366 1266.05,366.361C1262.46,366.556 1259.38,364.026 1259.16,360.713C1259.09,359.565 1259.37,358.472 1259.92,357.526Z"/>
    </g>
    <g transform="matrix(1.25864,0,0,1.42261,-656.55,-274.076)">
        <path d="M1402.93,373.576C1396.71,361.507 1389.87,356.904 1383.62,355.238C1377.38,353.577 1371.21,354.929 1365.39,356.177C1351.49,359.158 1339.2,372.08 1333.35,386.794C1327.37,401.846 1328.4,418.271 1338.66,427.147C1347.33,434.649 1363.31,437.78 1389.12,428.578C1392.38,427.419 1393.95,424.14 1392.64,421.261C1391.33,418.382 1387.63,416.986 1384.37,418.146C1374.27,421.747 1366.11,423.259 1359.61,423.04C1354.31,422.861 1350.31,421.499 1347.55,419.107C1344.23,416.239 1342.74,412.071 1342.37,407.471C1341.95,402.117 1343.09,396.187 1345.34,390.526C1349.7,379.577 1358.04,369.325 1368.39,367.107C1372.1,366.312 1375.98,364.949 1379.95,366.008C1383.91,367.062 1387.43,370.604 1391.37,378.242C1392.82,381.066 1396.6,382.313 1399.79,381.026C1402.98,379.738 1404.39,376.4 1402.93,373.576Z"/>
    </g>
    <g transform="matrix(1.2594,0,0,1.27465,-684.074,-210.555)">
        <path d="M1444.47,381.872C1436.76,395.197 1429.04,422.607 1429.04,422.607C1428.14,425.833 1429.96,429.189 1433.17,430.235C1436.39,431.281 1439.87,429.649 1441.09,426.526C1441.09,426.526 1449.45,405.043 1456,387.262L1456.07,387.157C1459.98,380.898 1471.18,367.694 1483.08,360.849C1489.21,357.321 1495.51,355.12 1500.59,358.997C1503.23,361.014 1502.98,364.47 1502.38,368.399C1500.92,377.878 1495.46,389.649 1491.94,400.329C1489.66,407.244 1488.17,413.779 1488.39,419.206C1488.69,426.401 1491.62,432.035 1498.32,435.44C1504.41,438.54 1512.72,438.644 1520.98,436.142C1532.55,432.633 1543.77,424.108 1547.8,414.503C1549.14,411.304 1547.6,407.628 1544.37,406.301C1541.13,404.973 1537.41,406.493 1536.07,409.692C1533.29,416.302 1525.21,421.727 1517.25,424.141C1512.47,425.589 1507.66,426.074 1504.13,424.28C1501,422.689 1500.81,419.492 1501.19,415.822C1501.83,409.711 1504.54,402.443 1507.28,395.078C1511.05,384.969 1514.88,374.7 1515.34,366.526C1515.76,359.114 1513.65,353.105 1508.35,349.062C1499.21,342.086 1487.72,343.654 1476.69,350.001C1473.1,352.064 1469.57,354.622 1466.22,357.409C1478.93,317.419 1485.12,286.838 1482.71,242.241C1482.53,238.782 1479.53,236.124 1476.03,236.308C1472.53,236.493 1469.84,239.451 1470.03,242.91C1472.6,290.653 1464.84,321.721 1449.73,367.051C1448.43,370.952 1446.56,376.183 1444.47,381.872Z"/>
    </g>
</svg>
