<svg width="100%" height="100%" viewBox="0 0 800 327" version="1.1" xmlns="http://www.w3.org/2000/svg" xmlns:xlink="http://www.w3.org/1999/xlink" xml:space="preserve" xmlns:serif="http://www.serif.com/" style="fill-rule:evenodd;clip-rule:evenodd;stroke-linejoin:round;stroke-miterlimit:2;"><path d="M215.984,145.182C195.497,131.075 178.15,132.147 165.841,139.663C154.066,146.852 146.708,160.318 145.408,173.523C144.512,182.613 146.478,191.535 151.532,198.318C158.81,208.089 166.522,212.398 173.872,213.207C181.394,214.035 188.79,211.209 195.47,205.824C200.617,201.674 205.351,195.955 209.389,189.51C209.019,194.043 209.212,198.922 210.361,203.142C211.735,208.189 214.447,212.33 218.628,214.648C221.444,216.209 224.984,217.002 229.429,216.46C232.126,216.132 234.049,213.675 233.721,210.978C233.392,208.281 230.935,206.358 228.238,206.687C226.257,206.928 224.657,206.732 223.402,206.036C221.476,204.969 220.494,202.88 219.862,200.556C218.408,195.216 219.063,188.507 220.241,183.871C233.11,133.216 266.63,51.016 271.555,37.645C272.279,35.679 272.462,34.462 272.468,34.21C272.526,31.569 270.987,30.424 270.149,29.9C269.48,29.481 265.812,27.613 263.311,31.507C250.656,51.212 226.602,113.135 215.984,145.182ZM212.856,155.055C199.812,145.331 188.399,142.689 179.099,144.77C168.53,147.135 161.023,155.536 157.425,165.074C153.872,174.494 154.014,185.168 159.428,192.436C164.583,199.356 169.744,202.847 174.95,203.42C179.983,203.974 184.82,201.763 189.29,198.159C199.702,189.763 207.981,173.924 211.485,159.986C211.834,158.601 212.294,156.946 212.856,155.055Z"/><path d="M283.718,194.203L283.705,194.337C283.008,201.999 285.811,206.963 289.75,209.856C294.23,213.146 300.631,213.75 306.372,211.796C312.044,209.865 316.927,205.521 318.643,199.561C319.394,196.95 317.884,194.22 315.273,193.469C312.662,192.717 309.932,194.227 309.181,196.838C308.24,200.106 305.113,202.137 301.926,202.829C299.081,203.446 295.949,203.099 294.425,200.68C293.59,199.354 293.301,197.537 293.511,195.228C294.574,183.524 302.702,172.306 308.202,162.902C312.358,155.797 314.868,151.078 315.657,149.002C316.278,147.37 316.26,146.195 316.183,145.606C315.96,143.911 315.11,142.873 314.209,142.193C313.39,141.576 312.395,141.176 311.164,141.176C309.706,141.176 308.39,141.695 307.273,142.75C307.196,142.823 307.12,142.902 307.045,142.986C304.14,137.853 299.359,134.791 293.892,133.364C286.375,131.403 277.557,132.682 271.754,135.227C253.507,143.231 235.955,169.778 241.46,193.734C242.775,199.458 245.467,202.903 248.671,204.882C251.92,206.888 255.877,207.441 260.153,206.751C268.298,205.437 277.84,199.239 283.718,194.203ZM298.409,147.718C296.396,144.286 292.644,142.862 288.78,142.403C284.118,141.848 279.164,142.728 275.709,144.244C260.94,150.722 246.6,172.139 251.056,191.529C251.577,193.796 252.342,195.391 253.552,196.304C254.835,197.272 256.492,197.321 258.251,197.081C260.886,196.72 263.71,195.598 266.45,194.179C272.109,191.249 277.392,186.996 279.996,184.203C287.093,176.593 292.402,167.583 297.673,158.453C297.652,158.208 297.65,157.957 297.666,157.703C297.772,156.114 298.341,148.608 298.409,147.718Z"/><path d="M119.284,176.428C116.281,188.183 114.844,198.986 115.803,207.781C121.468,259.763 152.097,287.257 192.5,299.167C231.8,310.752 280.6,307.298 324.103,297.25C364.677,287.879 400.612,272.792 419.947,259.186C429.358,252.563 434.961,245.93 436.36,240.524C437.04,237.894 435.457,235.205 432.827,234.525C430.196,233.844 427.508,235.427 426.828,238.058C425.808,242 421.143,246.304 414.28,251.133C395.653,264.242 360.976,278.629 321.887,287.657C280.036,297.323 233.092,300.868 195.284,289.723C158.58,278.903 130.737,253.938 125.591,206.715C123.864,190.868 130.924,168.1 140.295,145.383C142.271,140.592 144.355,135.806 146.498,131.09C157.139,111.346 166.68,91.758 173.127,78.555C176.417,72.527 178.993,67.873 180.417,65.102C181.658,62.689 182.127,61.064 182.176,60.549C182.335,58.881 181.748,57.791 181.266,57.117C180.325,55.802 179.013,55.039 177.221,55.039C176.447,55.039 175.432,55.19 174.345,55.947C173.938,56.23 172.671,57.552 171.275,60.176L171.118,60.477C171.793,53.929 171.834,48.137 171.339,43.039C169.965,28.895 164.509,19.696 156.881,14.109C147.902,7.533 135.587,5.949 122.324,8.011C103.793,10.892 83.356,20.813 68.849,31.933C44.093,50.91 5.895,84.791 5.336,156.203C5.097,186.786 26.102,201.472 50.114,205.047C73.578,208.539 99.682,200.898 110.492,188.001C113.36,184.58 116.306,180.68 119.284,176.428ZM153.722,93.976C153.749,93.611 153.818,93.244 153.932,92.88C160.509,71.882 162.697,55.908 161.539,43.991C160.506,33.359 156.797,26.252 151.063,22.053C144.01,16.887 134.255,16.121 123.836,17.74C106.845,20.381 88.14,29.552 74.839,39.748C51.617,57.549 15.706,89.292 15.182,156.28C14.989,180.906 32.229,192.43 51.563,195.308C71.446,198.267 93.786,192.604 102.946,181.676C113.995,168.495 126.183,148.108 137.253,127.639C142.661,115.68 148.432,104.13 153.722,93.976Z"/><path d="M343.525,162.78C336.694,171.824 330.958,180.746 328.536,185.195C322.212,196.813 319.772,204.434 319.408,205.874C318.396,209.881 321.654,211.574 321.899,211.699C323.167,212.347 325.888,213.028 328.422,210.261C331.106,207.332 339.264,189.899 340.188,188.352C341.721,185.789 347.229,177.333 351.913,167.962C356.699,161.678 362.011,155.41 367.007,150.814C369.328,148.678 371.556,146.92 373.622,145.785C373.912,145.626 374.192,145.473 374.463,145.335C374.401,146.061 374.307,146.855 374.166,147.555C371.972,158.447 363.986,176.211 363.141,178.442L362.618,179.925C357.631,189.728 354.143,199.354 353.178,206.677C353.056,207.606 353.205,208.228 353.288,208.556C353.846,210.74 355.278,211.585 356.445,211.991C357.621,212.399 359.273,212.615 361.058,211.246C361.167,211.163 362.172,210.42 362.889,208.56C364.162,205.255 370.2,188.013 371.909,183.176C376.363,174.644 382.059,166.003 388.125,158.94C392.176,154.224 396.391,150.216 400.545,147.501C403.962,145.267 407.244,143.872 410.31,144.17C410.98,144.236 411.794,144.47 412.212,144.602C412.139,145.091 411.966,146.091 411.697,146.806C410.971,148.745 409.757,150.934 408.28,153.306C403.239,161.404 395.307,171.277 390.117,180.204C385.995,187.297 383.707,194.007 384.492,199.144C385.869,208.161 392.23,212.611 400.805,212.677C410.964,212.756 425.043,205.632 434.613,191.938C436.169,189.711 435.624,186.639 433.397,185.082C431.17,183.526 428.098,184.071 426.542,186.298C419.177,196.838 408.7,202.892 400.881,202.831C397.471,202.805 394.773,201.244 394.225,197.658C393.955,195.889 394.522,193.853 395.404,191.612C396.553,188.694 398.315,185.549 400.355,182.308C407.149,171.517 416.819,159.801 420.369,151.616C422.775,146.068 422.487,141.518 420.169,138.543C418.59,136.516 415.848,134.816 411.263,134.37C404.107,133.674 395.743,137.735 387.739,145.127C386.463,146.306 385.192,147.568 383.93,148.901C384.757,144.402 384.472,140.771 383.46,138.78C382.386,136.666 380.701,135.412 378.431,135.025C376.135,134.634 373.491,135.012 370.643,136.278C367.52,137.668 363.983,140.216 360.34,143.567C360.053,143.832 359.765,144.101 359.478,144.375C359.581,140.173 358.48,136.68 356.249,134.153C353.967,131.568 350.378,129.752 344.842,129.752C335.097,129.752 326.937,132.734 319.401,139.256C317.346,141.034 317.122,144.146 318.9,146.2C320.678,148.255 323.789,148.479 325.844,146.701C331.472,141.83 337.565,139.598 344.842,139.598C346.807,139.598 348.203,139.797 348.946,140.765C349.488,141.47 349.607,142.431 349.637,143.503C349.688,145.308 349.332,147.359 348.748,149.55C347.631,153.74 345.703,158.342 343.525,162.78Z"/><path d="M523.707,32.274C517.379,59.534 511.769,109.244 500.383,134.535C489.824,157.988 470.917,175.832 457.47,197.346C456.03,199.65 456.732,202.69 459.036,204.13C461.34,205.57 464.38,204.869 465.82,202.565C479.501,180.675 498.618,162.439 509.361,138.577C520.954,112.826 526.855,62.256 533.299,34.501C533.913,31.854 532.263,29.206 529.616,28.592C526.97,27.977 524.322,29.627 523.707,32.274Z"/><path d="M505.093,138.011C506.195,138.004 507.347,137.965 508.547,137.891C523.631,136.959 537.744,129.074 550.783,121.735C604.22,91.655 613.653,73.752 648.615,25.223C650.203,23.018 649.703,19.939 647.498,18.351C645.294,16.762 642.214,17.263 640.626,19.467C606.741,66.502 597.744,84.001 545.953,113.154C534.179,119.782 521.56,127.222 507.94,128.063C497.568,128.704 493.301,126.817 491.181,125.898C490.017,125.393 489.116,125.125 488.402,125.037C486.117,124.757 484.301,125.25 482.587,127.775C481.699,129.085 481.562,130.336 481.727,131.464C481.903,132.668 482.467,134.087 484.194,135.185C484.647,135.474 485.42,135.827 486.498,136.212C488.509,136.928 492.599,138.347 496.699,143.281C500.484,147.836 504.177,155.132 506.665,166.879C514.971,206.097 518.863,245.087 552.821,271.747C588.113,299.454 639.305,306.545 686.002,296.227C732.849,285.875 775.002,258.036 792.236,216.692C793.282,214.184 792.095,211.299 789.587,210.254C787.079,209.208 784.194,210.396 783.148,212.903C767.091,251.423 727.524,276.968 683.877,286.613C640.079,296.291 592.002,289.989 558.901,264.002C526.913,238.889 524.121,201.781 516.298,164.839C513.531,151.776 509.309,143.444 505.093,138.011Z"/><path d="M600.67,146.638C601.055,144.399 599.84,142.116 597.647,141.238C582.88,135.325 571.609,137.015 563.623,142.336C551.778,150.228 546.886,166.9 549.06,181.882C550.641,192.784 555.924,202.606 564.22,207.622C573.491,213.228 583.212,212.463 591.925,207.918C603.876,201.684 613.801,187.962 617.094,175.428C619.599,165.899 618.207,157.093 612.519,151.763C609.755,149.174 605.887,147.274 600.67,146.638ZM590.316,149.067C581.293,146.233 574.245,147.09 569.082,150.53C560.185,156.458 557.172,169.215 558.804,180.469C559.941,188.306 563.35,195.59 569.314,199.196C577.014,203.852 585.141,201.441 591.882,196.295C599.406,190.551 605.346,181.396 607.572,172.926C609.035,167.355 609.112,162.064 605.787,158.949C603.557,156.86 599.98,156.005 594.946,156.302C592.234,156.462 589.902,154.389 589.742,151.677C589.687,150.736 589.9,149.841 590.316,149.067Z"/><path d="M682.613,158.385C677.796,147.819 672.497,143.789 667.65,142.331C662.818,140.876 658.042,142.06 653.535,143.152C642.765,145.762 633.248,157.075 628.717,169.956C624.081,183.134 624.884,197.513 632.829,205.284C639.543,211.851 651.917,214.592 671.914,206.537C674.435,205.521 675.657,202.651 674.641,200.131C673.626,197.61 670.756,196.388 668.235,197.404C660.411,200.556 654.093,201.88 649.055,201.688C644.95,201.531 641.854,200.339 639.713,198.245C637.146,195.734 635.99,192.086 635.706,188.059C635.375,183.371 636.261,178.18 638.005,173.223C641.377,163.638 647.84,154.664 655.854,152.722C658.726,152.026 661.733,150.832 664.813,151.759C667.88,152.682 670.605,155.783 673.654,162.47C674.782,164.942 677.704,166.034 680.176,164.907C682.648,163.779 683.74,160.857 682.613,158.385Z"/><path d="M698.521,169.967C692.546,180.419 686.559,201.919 686.559,201.919C685.862,204.45 687.273,207.082 689.767,207.903C692.26,208.723 694.958,207.444 695.901,204.994C695.901,204.994 702.381,188.143 707.458,174.195L707.508,174.113C710.539,169.204 719.224,158.846 728.444,153.476C733.196,150.709 738.073,148.983 742.011,152.024C744.06,153.606 743.867,156.317 743.4,159.399C742.274,166.834 738.037,176.067 735.308,184.445C733.541,189.868 732.386,194.995 732.56,199.252C732.791,204.895 735.063,209.315 740.252,211.986C744.975,214.418 751.418,214.499 757.814,212.536C766.784,209.784 775.475,203.097 778.602,195.563C779.643,193.053 778.451,190.17 775.942,189.129C773.432,188.087 770.549,189.279 769.508,191.789C767.356,196.974 761.098,201.229 754.925,203.123C751.225,204.259 747.492,204.639 744.759,203.232C742.335,201.984 742.187,199.477 742.484,196.598C742.978,191.804 745.072,186.103 747.199,180.326C750.118,172.396 753.088,164.341 753.447,157.93C753.772,152.116 752.136,147.402 748.029,144.231C740.944,138.759 732.039,139.989 723.489,144.968C720.71,146.586 717.973,148.592 715.38,150.778C725.229,119.41 730.025,95.423 728.16,60.441C728.015,57.728 725.695,55.643 722.982,55.787C720.269,55.932 718.183,58.252 718.328,60.965C720.325,98.415 714.309,122.785 702.599,158.342C701.591,161.402 700.141,165.504 698.521,169.967Z"/></svg>