<svg viewBox="0 0 800 327" xmlns="http://www.w3.org/2000/svg" fill-rule="evenodd" clip-rule="evenodd" stroke-linejoin="round" stroke-miterlimit="2"><path d="M215.984 145.182c-20.487-14.107-37.834-13.035-50.143-5.519-11.775 7.189-19.133 20.655-20.433 33.86-.896 9.09 1.07 18.012 6.124 24.795 7.278 9.771 14.99 14.08 22.34 14.889 7.522.828 14.918-1.998 21.598-7.383 5.147-4.15 9.881-9.869 13.919-16.314-.37 4.533-.177 9.412.972 13.632 1.374 5.047 4.086 9.188 8.267 11.506 2.816 1.561 6.356 2.354 10.801 1.812a4.926 4.926 0 004.292-5.482 4.926 4.926 0 00-5.483-4.291c-1.981.241-3.581.045-4.836-.651-1.926-1.067-2.908-3.156-3.54-5.48-1.454-5.34-.799-12.049.379-16.685 12.869-50.655 46.389-132.855 51.314-146.226.724-1.966.907-3.183.913-3.435.058-2.641-1.481-3.786-2.319-4.31-.669-.419-4.337-2.287-6.838 1.607-12.655 19.705-36.709 81.628-47.327 113.675zm-3.128 9.873c-13.044-9.724-24.457-12.366-33.757-10.285-10.569 2.365-18.076 10.766-21.674 20.304-3.553 9.42-3.411 20.094 2.003 27.362 5.155 6.92 10.316 10.411 15.522 10.984 5.033.554 9.87-1.657 14.34-5.261 10.412-8.396 18.691-24.235 22.195-38.173.349-1.385.809-3.04 1.371-4.931z"/><path d="M283.718 194.203l-.013.134c-.697 7.662 2.106 12.626 6.045 15.519 4.48 3.29 10.881 3.894 16.622 1.94 5.672-1.931 10.555-6.275 12.271-12.235a4.924 4.924 0 00-9.462-2.723c-.941 3.268-4.068 5.299-7.255 5.991-2.845.617-5.977.27-7.501-2.149-.835-1.326-1.124-3.143-.914-5.452 1.063-11.704 9.191-22.922 14.691-32.326 4.156-7.105 6.666-11.824 7.455-13.9.621-1.632.603-2.807.526-3.396-.223-1.695-1.073-2.733-1.974-3.413a4.925 4.925 0 00-3.045-1.017c-1.458 0-2.774.519-3.891 1.574a3.953 3.953 0 00-.228.236c-2.905-5.133-7.686-8.195-13.153-9.622-7.517-1.961-16.335-.682-22.138 1.863-18.247 8.004-35.799 34.551-30.294 58.507 1.315 5.724 4.007 9.169 7.211 11.148 3.249 2.006 7.206 2.559 11.482 1.869 8.145-1.314 17.687-7.512 23.565-12.548zm14.691-46.485c-2.013-3.432-5.765-4.856-9.629-5.315-4.662-.555-9.616.325-13.071 1.841-14.769 6.478-29.109 27.895-24.653 47.285.521 2.267 1.286 3.862 2.496 4.775 1.283.968 2.94 1.017 4.699.777 2.635-.361 5.459-1.483 8.199-2.902 5.659-2.93 10.942-7.183 13.546-9.976 7.097-7.61 12.406-16.62 17.677-25.75a5.063 5.063 0 01-.007-.75c.106-1.589.675-9.095.743-9.985z"/><path d="M119.284 176.428c-3.003 11.755-4.44 22.558-3.481 31.353 5.665 51.982 36.294 79.476 76.697 91.386 39.3 11.585 88.1 8.131 131.603-1.917 40.574-9.371 76.509-24.458 95.844-38.064 9.411-6.623 15.014-13.256 16.413-18.662a4.924 4.924 0 00-9.532-2.466c-1.02 3.942-5.685 8.246-12.548 13.075-18.627 13.109-53.304 27.496-92.393 36.524-41.851 9.666-88.795 13.211-126.603 2.066-36.704-10.82-64.547-35.785-69.693-83.008-1.727-15.847 5.333-38.615 14.704-61.332a442.103 442.103 0 016.203-14.293c10.641-19.744 20.182-39.332 26.629-52.535 3.29-6.028 5.866-10.682 7.29-13.453 1.241-2.413 1.71-4.038 1.759-4.553.159-1.668-.428-2.758-.91-3.432-.941-1.315-2.253-2.078-4.045-2.078a4.87 4.87 0 00-2.876.908c-.407.283-1.674 1.605-3.07 4.229l-.157.301c.675-6.548.716-12.34.221-17.438-1.374-14.144-6.83-23.343-14.458-28.93-8.979-6.576-21.294-8.16-34.557-6.098-18.531 2.881-38.968 12.802-53.475 23.922C44.093 50.91 5.895 84.791 5.336 156.203c-.239 30.583 20.766 45.269 44.778 48.844 23.464 3.492 49.568-4.149 60.378-17.046 2.868-3.421 5.814-7.321 8.792-11.573zm34.438-82.452c.027-.365.096-.732.21-1.096 6.577-20.998 8.765-36.972 7.607-48.889-1.033-10.632-4.742-17.739-10.476-21.938-7.053-5.166-16.808-5.932-27.227-4.313-16.991 2.641-35.696 11.812-48.997 22.008C51.617 57.549 15.706 89.292 15.182 156.28c-.193 24.626 17.047 36.15 36.381 39.028 19.883 2.959 42.223-2.704 51.383-13.632 11.049-13.181 23.237-33.568 34.307-54.037 5.408-11.959 11.179-23.509 16.469-33.663z"/><path d="M343.525 162.78c-6.831 9.044-12.567 17.966-14.989 22.415-6.324 11.618-8.764 19.239-9.128 20.679-1.012 4.007 2.246 5.7 2.491 5.825 1.268.648 3.989 1.329 6.523-1.438 2.684-2.929 10.842-20.362 11.766-21.909 1.533-2.563 7.041-11.019 11.725-20.39 4.786-6.284 10.098-12.552 15.094-17.148 2.321-2.136 4.549-3.894 6.615-5.029.29-.159.57-.312.841-.45a20.47 20.47 0 01-.297 2.22c-2.194 10.892-10.18 28.656-11.025 30.887l-.523 1.483c-4.987 9.803-8.475 19.429-9.44 26.752a4.705 4.705 0 00.11 1.879c.558 2.184 1.99 3.029 3.157 3.435 1.176.408 2.828.624 4.613-.745.109-.083 1.114-.826 1.831-2.686 1.273-3.305 7.311-20.547 9.02-25.384 4.454-8.532 10.15-17.173 16.216-24.236 4.051-4.716 8.266-8.724 12.42-11.439 3.417-2.234 6.699-3.629 9.765-3.331.67.066 1.484.3 1.902.432-.073.489-.246 1.489-.515 2.204-.726 1.939-1.94 4.128-3.417 6.5-5.041 8.098-12.973 17.971-18.163 26.898-4.122 7.093-6.41 13.803-5.625 18.94 1.377 9.017 7.738 13.467 16.313 13.533 10.159.079 24.238-7.045 33.808-20.739a4.927 4.927 0 00-1.216-6.856 4.926 4.926 0 00-6.855 1.216c-7.365 10.54-17.842 16.594-25.661 16.533-3.41-.026-6.108-1.587-6.656-5.173-.27-1.769.297-3.805 1.179-6.046 1.149-2.918 2.911-6.063 4.951-9.304 6.794-10.791 16.464-22.507 20.014-30.692 2.406-5.548 2.118-10.098-.2-13.073-1.579-2.027-4.321-3.727-8.906-4.173-7.156-.696-15.52 3.365-23.524 10.757a80.375 80.375 0 00-3.809 3.774c.827-4.499.542-8.13-.47-10.121-1.074-2.114-2.759-3.368-5.029-3.755-2.296-.391-4.94-.013-7.788 1.253-3.123 1.39-6.66 3.938-10.303 7.289-.287.265-.575.534-.862.808.103-4.202-.998-7.695-3.229-10.222-2.282-2.585-5.871-4.401-11.407-4.401-9.745 0-17.905 2.982-25.441 9.504a4.925 4.925 0 00-.501 6.944 4.925 4.925 0 006.944.501c5.628-4.871 11.721-7.103 18.998-7.103 1.965 0 3.361.199 4.104 1.167.542.705.661 1.666.691 2.738.051 1.805-.305 3.856-.889 6.047-1.117 4.19-3.045 8.792-5.223 13.23zM523.707 32.274c-6.328 27.26-11.938 76.97-23.324 102.261-10.559 23.453-29.466 41.297-42.913 62.811a4.926 4.926 0 001.566 6.784 4.925 4.925 0 006.784-1.565c13.681-21.89 32.798-40.126 43.541-63.988 11.593-25.751 17.494-76.321 23.938-104.076a4.926 4.926 0 00-3.683-5.909 4.925 4.925 0 00-5.909 3.682z"/><path d="M505.093 138.011a62.627 62.627 0 003.454-.12c15.084-.932 29.197-8.817 42.236-16.156 53.437-30.08 62.87-47.983 97.832-96.512a4.925 4.925 0 00-1.117-6.872 4.925 4.925 0 00-6.872 1.116c-33.885 47.035-42.882 64.534-94.673 93.687-11.774 6.628-24.393 14.068-38.013 14.909-10.372.641-14.639-1.246-16.759-2.165-1.164-.505-2.065-.773-2.779-.861-2.285-.28-4.101.213-5.815 2.738-.888 1.31-1.025 2.561-.86 3.689.176 1.204.74 2.623 2.467 3.721.453.289 1.226.642 2.304 1.027 2.011.716 6.101 2.135 10.201 7.069 3.785 4.555 7.478 11.851 9.966 23.598 8.306 39.218 12.198 78.208 46.156 104.868 35.292 27.707 86.484 34.798 133.181 24.48 46.847-10.352 89-38.191 106.234-79.535a4.924 4.924 0 00-9.088-3.789c-16.057 38.52-55.624 64.065-99.271 73.71-43.798 9.678-91.875 3.376-124.976-22.611-31.988-25.113-34.78-62.221-42.603-99.163-2.767-13.063-6.989-21.395-11.205-26.828z"/><path d="M600.67 146.638a4.927 4.927 0 00-3.023-5.4c-14.767-5.913-26.038-4.223-34.024 1.098-11.845 7.892-16.737 24.564-14.563 39.546 1.581 10.902 6.864 20.724 15.16 25.74 9.271 5.606 18.992 4.841 27.705.296 11.951-6.234 21.876-19.956 25.169-32.49 2.505-9.529 1.113-18.335-4.575-23.665-2.764-2.589-6.632-4.489-11.849-5.125zm-10.354 2.429c-9.023-2.834-16.071-1.977-21.234 1.463-8.897 5.928-11.91 18.685-10.278 29.939 1.137 7.837 4.546 15.121 10.51 18.727 7.7 4.656 15.827 2.245 22.568-2.901 7.524-5.744 13.464-14.899 15.69-23.369 1.463-5.571 1.54-10.862-1.785-13.977-2.23-2.089-5.807-2.944-10.841-2.647a4.926 4.926 0 01-5.204-4.625 4.892 4.892 0 01.574-2.61zM682.613 158.385c-4.817-10.566-10.116-14.596-14.963-16.054-4.832-1.455-9.608-.271-14.115.821-10.77 2.61-20.287 13.923-24.818 26.804-4.636 13.178-3.833 27.557 4.112 35.328 6.714 6.567 19.088 9.308 39.085 1.253a4.924 4.924 0 00-3.679-9.133c-7.824 3.152-14.142 4.476-19.18 4.284-4.105-.157-7.201-1.349-9.342-3.443-2.567-2.511-3.723-6.159-4.007-10.186-.331-4.688.555-9.879 2.299-14.836 3.372-9.585 9.835-18.559 17.849-20.501 2.872-.696 5.879-1.89 8.959-.963 3.067.923 5.792 4.024 8.841 10.711a4.926 4.926 0 006.522 2.437 4.926 4.926 0 002.437-6.522zM698.521 169.967c-5.975 10.452-11.962 31.952-11.962 31.952a4.923 4.923 0 009.342 3.075s6.48-16.851 11.557-30.799l.05-.082c3.031-4.909 11.716-15.267 20.936-20.637 4.752-2.767 9.629-4.493 13.567-1.452 2.049 1.582 1.856 4.293 1.389 7.375-1.126 7.435-5.363 16.668-8.092 25.046-1.767 5.423-2.922 10.55-2.748 14.807.231 5.643 2.503 10.063 7.692 12.734 4.723 2.432 11.166 2.513 17.562.55 8.97-2.752 17.661-9.439 20.788-16.973a4.924 4.924 0 00-9.094-3.774c-2.152 5.185-8.41 9.44-14.583 11.334-3.7 1.136-7.433 1.516-10.166.109-2.424-1.248-2.572-3.755-2.275-6.634.494-4.794 2.588-10.495 4.715-16.272 2.919-7.93 5.889-15.985 6.248-22.396.325-5.814-1.311-10.528-5.418-13.699-7.085-5.472-15.99-4.242-24.54.737-2.779 1.618-5.516 3.624-8.109 5.81 9.849-31.368 14.645-55.355 12.78-90.337a4.926 4.926 0 00-5.178-4.654 4.926 4.926 0 00-4.654 5.178c1.997 37.45-4.019 61.82-15.729 97.377-1.008 3.06-2.458 7.162-4.078 11.625z"/></svg>