<?xml version="1.0" encoding="UTF-8" standalone="no"?><!DOCTYPE svg PUBLIC "-//W3C//DTD SVG 1.1//EN" "http://www.w3.org/Graphics/SVG/1.1/DTD/svg11.dtd"><svg width="10px" height="10px" version="1.1" xmlns="http://www.w3.org/2000/svg" xmlns:xlink="http://www.w3.org/1999/xlink" xml:space="preserve" xmlns:serif="http://www.serif.com/" style="fill-rule:evenodd;clip-rule:evenodd;stroke-linejoin:round;stroke-miterlimit:2;"><path d="M10,10L7.251,10C8.436,9.248 9.028,8.446 9.028,7.596C9.028,7.074 8.429,6.7 7.231,6.472C6.724,6.378 5.61,6.268 3.892,6.142C2.694,6.054 2.095,5.918 2.095,5.732C2.095,5.431 2.778,5.188 4.146,5.003L6.108,5.003L6.108,4.163L3.877,4.163L5.835,2.625L4.604,2.625L6.108,1.071L5.332,1.071L6.567,-0L7.798,1.071L7.021,1.071L8.525,2.625L7.295,2.625L9.258,4.163L7.021,4.163L7.021,5.003L10,5.003L10,10ZM5.786,7.596C5.786,8.17 5.028,8.742 3.511,9.312C2.876,9.55 2.116,9.78 1.23,10L0,10L0,5.003L2.822,5.003C1.455,5.129 0.771,5.389 0.771,5.785C0.771,6.138 1.204,6.381 2.07,6.514C2.878,6.609 3.683,6.705 4.487,6.803C5.353,6.95 5.786,7.214 5.786,7.596Z" style="fill-rule:nonzero;"/></svg>