<?xml version="1.0" encoding="UTF-8" standalone="no"?>
<!DOCTYPE svg PUBLIC "-//W3C//DTD SVG 1.1//EN" "http://www.w3.org/Graphics/SVG/1.1/DTD/svg11.dtd">
<svg width="100%" height="100%" viewBox="0 0 102 222" version="1.1" xmlns="http://www.w3.org/2000/svg" xmlns:xlink="http://www.w3.org/1999/xlink" xml:space="preserve" xmlns:serif="http://www.serif.com/" style="fill-rule:evenodd;clip-rule:evenodd;stroke-linecap:round;stroke-linejoin:round;">
    <g style="filter:url(#_Effect1);">
        <path d="M1.077,0.563L100.452,0.563C99.366,45.574 98.041,82.254 98.584,127.261C98.454,127.701 96.498,126.46 95.633,126.844C95.03,127.112 94.533,130.577 94.271,130.49C90.722,129.307 92.091,130.743 92.907,132.926C93.341,134.085 93.057,135.077 93.718,135.853C94.593,137.613 92.918,137.656 92.518,138.557C90.991,141.249 94.962,140.506 95.148,141.481C95.556,141.427 94.805,143.493 95.172,144.242C95.502,144.914 96.537,143.42 97.154,143.6C97.91,143.82 98.278,145.559 98.903,144.626C99.446,173.434 99.366,190.848 100.452,220.555L1.077,220.555C1.583,215.134 0.009,211.03 0.765,205.642C0.885,204.783 1.077,205.81 1.62,204.01C2.105,202.399 2.216,201.892 2.621,202.176C2.807,202.306 3.221,206.396 3.429,206.402C3.714,206.409 3.796,202.283 4.053,202.12C4.287,201.971 4.908,203.463 5.338,203.283C5.596,203.175 6.24,201.884 6.381,201.361C6.532,200.797 7.182,200.733 7.148,200.57C7.043,200.062 7.261,196.562 7,195.955C6.785,195.454 5.329,199.161 5.275,198.765C5.251,198.582 5.611,196.678 5.173,196.597C4.885,196.543 4.4,193.89 3.803,194.245C3.567,194.385 3.344,197.646 3.15,197.711C2.577,197.905 3.533,196.529 3.275,196.259C3.105,196.081 1.62,197.113 1.62,196.808C1.62,195.908 1.414,194.92 1.442,194.397C3.946,146.9 2.409,98.315 1.554,37.487C1.554,37.442 2.159,37.973 2.275,37.326C2.452,36.334 2.466,35.8 2.736,36.13C3.092,36.564 3.021,36.88 3.24,36.742C3.666,36.473 3.244,33.619 3.652,33.615C4.099,33.61 4.113,34.742 4.41,34.526C4.704,34.311 4.56,32.656 4.558,32.461C4.554,32.201 4.024,32.054 3.88,31.294C3.796,30.855 4.198,29.73 3.985,29.503C3.828,29.337 3.08,30.609 2.933,30.423C2.806,30.26 3.135,29.051 2.993,28.957C2.749,28.795 2.238,28.498 2.143,29.837C2.091,30.576 1.365,29.904 1.363,29.684C1.239,20.218 1.137,10.516 1.077,0.555L1.077,0.563Z" style="fill:#e3cd9d;fill-rule:nonzero;stroke:#583c1f;stroke-width:0.46px;"/>
    </g>
    <defs>
        <filter id="_Effect1" filterUnits="userSpaceOnUse" x="-0.323128" y="-0.323128" width="101.654" height="221.757">
            <feGaussianBlur in="SourceGraphic" stdDeviation="0.107709"/>
        </filter>
    </defs>
</svg>
