<?xml version="1.0" encoding="UTF-8" standalone="no"?><!DOCTYPE svg PUBLIC "-//W3C//DTD SVG 1.1//EN" "http://www.w3.org/Graphics/SVG/1.1/DTD/svg11.dtd"><svg width="8px" height="8px" version="1.1" xmlns="http://www.w3.org/2000/svg" xmlns:xlink="http://www.w3.org/1999/xlink" xml:space="preserve" xmlns:serif="http://www.serif.com/" style="fill-rule:evenodd;clip-rule:evenodd;stroke-linejoin:round;stroke-miterlimit:2;"><g id="Layer1"><path d="M3.596,1.716C1.794,1.762 0.465,3.338 0.462,4.907C0.459,6.399 1.695,8.011 3.839,7.992C5.496,7.978 7.375,6.965 7.53,4.579C7.654,2.677 6.344,0.416 3.596,0C3.596,0 3.595,1.062 3.596,1.716Z" style="fill:#406275;"/><path d="M3.596,2.637L3.596,4.322C4.292,3.461 5.928,4.293 5.854,5.796C5.794,7.023 4.619,8.1 3.397,7.993C1.86,7.858 0.864,6.812 0.705,5.7C0.436,3.813 1.849,2.462 3.596,2.637Z" style="fill:#424c54;"/></g></svg>